TITLE ""
FILE "LR_black_phrase_E_A03.mp3" MP3
  TRACK 01 AUDIO
    TITLE "LR_black_phrase_E_A03_001"
    INDEX 01 00:00:00
  TRACK 02 AUDIO
    TITLE "LR_black_phrase_E_A03_002"
    INDEX 01 00:00:08
  TRACK 03 AUDIO
    TITLE "LR_black_phrase_E_A03_003"
    INDEX 01 00:01:31
  TRACK 04 AUDIO
    TITLE "LR_black_phrase_E_A03_004"
    INDEX 01 00:01:63
  TRACK 05 AUDIO
    TITLE "LR_black_phrase_E_A03_005"
    INDEX 01 00:04:06
  TRACK 06 AUDIO
    TITLE "LR_black_phrase_E_A03_006"
    INDEX 01 00:04:59
  TRACK 07 AUDIO
    TITLE "LR_black_phrase_E_A03_007"
    INDEX 01 00:07:03
  TRACK 08 AUDIO
    TITLE "LR_black_phrase_E_A03_008"
    INDEX 01 00:08:08
  TRACK 09 AUDIO
    TITLE "LR_black_phrase_E_A03_009"
    INDEX 01 00:09:31
  TRACK 10 AUDIO
    TITLE "LR_black_phrase_E_A03_010"
    INDEX 01 00:09:62
  TRACK 11 AUDIO
    TITLE "LR_black_phrase_E_A03_011"
    INDEX 01 00:11:51
  TRACK 12 AUDIO
    TITLE "LR_black_phrase_E_A03_012"
    INDEX 01 00:12:33
  TRACK 13 AUDIO
    TITLE "LR_black_phrase_E_A03_013"
    INDEX 01 00:14:20
  TRACK 14 AUDIO
    TITLE "LR_black_phrase_E_A03_014"
    INDEX 01 00:15:27
  TRACK 15 AUDIO
    TITLE "LR_black_phrase_E_A03_015"
    INDEX 01 00:16:50
  TRACK 16 AUDIO
    TITLE "LR_black_phrase_E_A03_016"
    INDEX 01 00:17:05
  TRACK 17 AUDIO
    TITLE "LR_black_phrase_E_A03_017"
    INDEX 01 00:19:39
  TRACK 18 AUDIO
    TITLE "LR_black_phrase_E_A03_018"
    INDEX 01 00:20:19
  TRACK 19 AUDIO
    TITLE "LR_black_phrase_E_A03_019"
    INDEX 01 00:22:55
  TRACK 20 AUDIO
    TITLE "LR_black_phrase_E_A03_020"
    INDEX 01 00:23:52
  TRACK 21 AUDIO
    TITLE "LR_black_phrase_E_A03_021"
    INDEX 01 00:25:04
  TRACK 22 AUDIO
    TITLE "LR_black_phrase_E_A03_022"
    INDEX 01 00:25:32
  TRACK 23 AUDIO
    TITLE "LR_black_phrase_E_A03_023"
    INDEX 01 00:27:62
  TRACK 24 AUDIO
    TITLE "LR_black_phrase_E_A03_024"
    INDEX 01 00:28:42
  TRACK 25 AUDIO
    TITLE "LR_black_phrase_E_A03_025"
    INDEX 01 00:30:72
  TRACK 26 AUDIO
    TITLE "LR_black_phrase_E_A03_026"
    INDEX 01 00:32:04
  TRACK 27 AUDIO
    TITLE "LR_black_phrase_E_A03_027"
    INDEX 01 00:33:14
  TRACK 28 AUDIO
    TITLE "LR_black_phrase_E_A03_028"
    INDEX 01 00:33:39
  TRACK 29 AUDIO
    TITLE "LR_black_phrase_E_A03_029"
    INDEX 01 00:36:10
  TRACK 30 AUDIO
    TITLE "LR_black_phrase_E_A03_030"
    INDEX 01 00:36:55
  TRACK 31 AUDIO
    TITLE "LR_black_phrase_E_A03_031"
    INDEX 01 00:39:24
  TRACK 32 AUDIO
    TITLE "LR_black_phrase_E_A03_032"
    INDEX 01 00:40:20
  TRACK 33 AUDIO
    TITLE "LR_black_phrase_E_A03_033"
    INDEX 01 00:41:33
  TRACK 34 AUDIO
    TITLE "LR_black_phrase_E_A03_034"
    INDEX 01 00:41:64
  TRACK 35 AUDIO
    TITLE "LR_black_phrase_E_A03_035"
    INDEX 01 00:44:08
  TRACK 36 AUDIO
    TITLE "LR_black_phrase_E_A03_036"
    INDEX 01 00:44:72
  TRACK 37 AUDIO
    TITLE "LR_black_phrase_E_A03_037"
    INDEX 01 00:47:16
  TRACK 38 AUDIO
    TITLE "LR_black_phrase_E_A03_038"
    INDEX 01 00:48:31
  TRACK 39 AUDIO
    TITLE "LR_black_phrase_E_A03_039"
    INDEX 01 00:49:54
  TRACK 40 AUDIO
    TITLE "LR_black_phrase_E_A03_040"
    INDEX 01 00:50:10
  TRACK 41 AUDIO
    TITLE "LR_black_phrase_E_A03_041"
    INDEX 01 00:52:23
  TRACK 42 AUDIO
    TITLE "LR_black_phrase_E_A03_042"
    INDEX 01 00:53:03
  TRACK 43 AUDIO
    TITLE "LR_black_phrase_E_A03_043"
    INDEX 01 00:55:15
  TRACK 44 AUDIO
    TITLE "LR_black_phrase_E_A03_044"
    INDEX 01 00:56:19
  TRACK 45 AUDIO
    TITLE "LR_black_phrase_E_A03_045"
    INDEX 01 00:57:59
  TRACK 46 AUDIO
    TITLE "LR_black_phrase_E_A03_046"
    INDEX 01 00:58:14
  TRACK 47 AUDIO
    TITLE "LR_black_phrase_E_A03_047"
    INDEX 01 01:00:12
  TRACK 48 AUDIO
    TITLE "LR_black_phrase_E_A03_048"
    INDEX 01 01:00:67
  TRACK 49 AUDIO
    TITLE "LR_black_phrase_E_A03_049"
    INDEX 01 01:02:64
  TRACK 50 AUDIO
    TITLE "LR_black_phrase_E_A03_050"
    INDEX 01 01:03:70
  TRACK 51 AUDIO
    TITLE "LR_black_phrase_E_A03_051"
    INDEX 01 01:05:22
  TRACK 52 AUDIO
    TITLE "LR_black_phrase_E_A03_052"
    INDEX 01 01:05:53
  TRACK 53 AUDIO
    TITLE "LR_black_phrase_E_A03_053"
    INDEX 01 01:07:46
  TRACK 54 AUDIO
    TITLE "LR_black_phrase_E_A03_054"
    INDEX 01 01:08:24
  TRACK 55 AUDIO
    TITLE "LR_black_phrase_E_A03_055"
    INDEX 01 01:10:19
  TRACK 56 AUDIO
    TITLE "LR_black_phrase_E_A03_056"
    INDEX 01 01:11:18
  TRACK 57 AUDIO
    TITLE "LR_black_phrase_E_A03_057"
    INDEX 01 01:12:37
  TRACK 58 AUDIO
    TITLE "LR_black_phrase_E_A03_058"
    INDEX 01 01:12:53
  TRACK 59 AUDIO
    TITLE "LR_black_phrase_E_A03_059"
    INDEX 01 01:14:26
  TRACK 60 AUDIO
    TITLE "LR_black_phrase_E_A03_060"
    INDEX 01 01:14:66
  TRACK 61 AUDIO
    TITLE "LR_black_phrase_E_A03_061"
    INDEX 01 01:16:39
  TRACK 62 AUDIO
    TITLE "LR_black_phrase_E_A03_062"
    INDEX 01 01:17:36
  TRACK 63 AUDIO
    TITLE "LR_black_phrase_E_A03_063"
    INDEX 01 01:18:61
  TRACK 64 AUDIO
    TITLE "LR_black_phrase_E_A03_064"
    INDEX 01 01:19:18
  TRACK 65 AUDIO
    TITLE "LR_black_phrase_E_A03_065"
    INDEX 01 01:21:17
  TRACK 66 AUDIO
    TITLE "LR_black_phrase_E_A03_066"
    INDEX 01 01:21:70
  TRACK 67 AUDIO
    TITLE "LR_black_phrase_E_A03_067"
    INDEX 01 01:23:68
  TRACK 68 AUDIO
    TITLE "LR_black_phrase_E_A03_068"
    INDEX 01 01:24:74
  TRACK 69 AUDIO
    TITLE "LR_black_phrase_E_A03_069"
    INDEX 01 01:26:24
  TRACK 70 AUDIO
    TITLE "LR_black_phrase_E_A03_070"
    INDEX 01 01:26:49
  TRACK 71 AUDIO
    TITLE "LR_black_phrase_E_A03_071"
    INDEX 01 01:28:30
  TRACK 72 AUDIO
    TITLE "LR_black_phrase_E_A03_072"
    INDEX 01 01:29:04
  TRACK 73 AUDIO
    TITLE "LR_black_phrase_E_A03_073"
    INDEX 01 01:30:66
  TRACK 74 AUDIO
    TITLE "LR_black_phrase_E_A03_074"
    INDEX 01 01:31:68
  TRACK 75 AUDIO
    TITLE "LR_black_phrase_E_A03_075"
    INDEX 01 01:33:10
  TRACK 76 AUDIO
    TITLE "LR_black_phrase_E_A03_076"
    INDEX 01 01:33:41
  TRACK 77 AUDIO
    TITLE "LR_black_phrase_E_A03_077"
    INDEX 01 01:35:60
  TRACK 78 AUDIO
    TITLE "LR_black_phrase_E_A03_078"
    INDEX 01 01:36:40
  TRACK 79 AUDIO
    TITLE "LR_black_phrase_E_A03_079"
    INDEX 01 01:38:58
  TRACK 80 AUDIO
    TITLE "LR_black_phrase_E_A03_080"
    INDEX 01 01:39:65
  TRACK 81 AUDIO
    TITLE "LR_black_phrase_E_A03_081"
    INDEX 01 01:40:69
  TRACK 82 AUDIO
    TITLE "LR_black_phrase_E_A03_082"
    INDEX 01 01:41:21
  TRACK 83 AUDIO
    TITLE "LR_black_phrase_E_A03_083"
    INDEX 01 01:42:64
  TRACK 84 AUDIO
    TITLE "LR_black_phrase_E_A03_084"
    INDEX 01 01:43:46
  TRACK 85 AUDIO
    TITLE "LR_black_phrase_E_A03_085"
    INDEX 01 01:45:09
  TRACK 86 AUDIO
    TITLE "LR_black_phrase_E_A03_086"
    INDEX 01 01:46:13
  TRACK 87 AUDIO
    TITLE "LR_black_phrase_E_A03_087"
    INDEX 01 01:47:41
  TRACK 88 AUDIO
    TITLE "LR_black_phrase_E_A03_088"
    INDEX 01 01:47:73
  TRACK 89 AUDIO
    TITLE "LR_black_phrase_E_A03_089"
    INDEX 01 01:49:60
  TRACK 90 AUDIO
    TITLE "LR_black_phrase_E_A03_090"
    INDEX 01 01:50:40
  TRACK 91 AUDIO
    TITLE "LR_black_phrase_E_A03_091"
    INDEX 01 01:52:27
  TRACK 92 AUDIO
    TITLE "LR_black_phrase_E_A03_092"
    INDEX 01 01:53:24
  TRACK 93 AUDIO
    TITLE "LR_black_phrase_E_A03_093"
    INDEX 01 01:54:67
  TRACK 94 AUDIO
    TITLE "LR_black_phrase_E_A03_094"
    INDEX 01 01:55:16
  TRACK 95 AUDIO
    TITLE "LR_black_phrase_E_A03_095"
    INDEX 01 01:58:02
  TRACK 96 AUDIO
    TITLE "LR_black_phrase_E_A03_096"
    INDEX 01 01:58:47
  TRACK 97 AUDIO
    TITLE "LR_black_phrase_E_A03_097"
    INDEX 01 02:01:34
  TRACK 98 AUDIO
    TITLE "LR_black_phrase_E_A03_098"
    INDEX 01 02:02:29
  TRACK 99 AUDIO
    TITLE "LR_black_phrase_E_A03_099"
    INDEX 01 02:03:52
  TRACK 100 AUDIO
    TITLE "LR_black_phrase_E_A03_100"
    INDEX 01 02:03:72
  TRACK 101 AUDIO
    TITLE "LR_black_phrase_E_A03_101"
    INDEX 01 02:06:13
  TRACK 102 AUDIO
    TITLE "LR_black_phrase_E_A03_102"
    INDEX 01 02:06:58
  TRACK 103 AUDIO
    TITLE "LR_black_phrase_E_A03_103"
    INDEX 01 02:08:73
  TRACK 104 AUDIO
    TITLE "LR_black_phrase_E_A03_104"
    INDEX 01 02:09:69
  TRACK 105 AUDIO
    TITLE "LR_black_phrase_E_A03_105"
    INDEX 01 02:11:20
  TRACK 106 AUDIO
    TITLE "LR_black_phrase_E_A03_106"
    INDEX 01 02:11:42
  TRACK 107 AUDIO
    TITLE "LR_black_phrase_E_A03_107"
    INDEX 01 02:13:43
  TRACK 108 AUDIO
    TITLE "LR_black_phrase_E_A03_108"
    INDEX 01 02:14:15
  TRACK 109 AUDIO
    TITLE "LR_black_phrase_E_A03_109"
    INDEX 01 02:16:16
  TRACK 110 AUDIO
    TITLE "LR_black_phrase_E_A03_110"
    INDEX 01 02:17:17
  TRACK 111 AUDIO
    TITLE "LR_black_phrase_E_A03_111"
    INDEX 01 02:18:54
  TRACK 112 AUDIO
    TITLE "LR_black_phrase_E_A03_112"
    INDEX 01 02:19:06
  TRACK 113 AUDIO
    TITLE "LR_black_phrase_E_A03_113"
    INDEX 01 02:21:58
  TRACK 114 AUDIO
    TITLE "LR_black_phrase_E_A03_114"
    INDEX 01 02:22:38
  TRACK 115 AUDIO
    TITLE "LR_black_phrase_E_A03_115"
    INDEX 01 02:25:11
  TRACK 116 AUDIO
    TITLE "LR_black_phrase_E_A03_116"
    INDEX 01 02:26:18
  TRACK 117 AUDIO
    TITLE "LR_black_phrase_E_A03_117"
    INDEX 01 02:27:33
  TRACK 118 AUDIO
    TITLE "LR_black_phrase_E_A03_118"
    INDEX 01 02:27:63
  TRACK 119 AUDIO
    TITLE "LR_black_phrase_E_A03_119"
    INDEX 01 02:29:65
  TRACK 120 AUDIO
    TITLE "LR_black_phrase_E_A03_120"
    INDEX 01 02:30:47
  TRACK 121 AUDIO
    TITLE "LR_black_phrase_E_A03_121"
    INDEX 01 02:32:48
  TRACK 122 AUDIO
    TITLE "LR_black_phrase_E_A03_122"
    INDEX 01 02:33:51
  TRACK 123 AUDIO
    TITLE "LR_black_phrase_E_A03_123"
    INDEX 01 02:35:09
  TRACK 124 AUDIO
    TITLE "LR_black_phrase_E_A03_124"
    INDEX 01 02:35:37
  TRACK 125 AUDIO
    TITLE "LR_black_phrase_E_A03_125"
    INDEX 01 02:37:33
  TRACK 126 AUDIO
    TITLE "LR_black_phrase_E_A03_126"
    INDEX 01 02:38:11
  TRACK 127 AUDIO
    TITLE "LR_black_phrase_E_A03_127"
    INDEX 01 02:40:08
  TRACK 128 AUDIO
    TITLE "LR_black_phrase_E_A03_128"
    INDEX 01 02:41:10
  TRACK 129 AUDIO
    TITLE "LR_black_phrase_E_A03_129"
    INDEX 01 02:42:33
  TRACK 130 AUDIO
    TITLE "LR_black_phrase_E_A03_130"
    INDEX 01 02:42:54
  TRACK 131 AUDIO
    TITLE "LR_black_phrase_E_A03_131"
    INDEX 01 02:45:47
  TRACK 132 AUDIO
    TITLE "LR_black_phrase_E_A03_132"
    INDEX 01 02:46:17
  TRACK 133 AUDIO
    TITLE "LR_black_phrase_E_A03_133"
    INDEX 01 02:49:09
  TRACK 134 AUDIO
    TITLE "LR_black_phrase_E_A03_134"
    INDEX 01 02:50:05
  TRACK 135 AUDIO
    TITLE "LR_black_phrase_E_A03_135"
    INDEX 01 02:51:16
  TRACK 136 AUDIO
    TITLE "LR_black_phrase_E_A03_136"
    INDEX 01 02:51:41
  TRACK 137 AUDIO
    TITLE "LR_black_phrase_E_A03_137"
    INDEX 01 02:54:24
  TRACK 138 AUDIO
    TITLE "LR_black_phrase_E_A03_138"
    INDEX 01 02:54:73
  TRACK 139 AUDIO
    TITLE "LR_black_phrase_E_A03_139"
    INDEX 01 02:57:54
  TRACK 140 AUDIO
    TITLE "LR_black_phrase_E_A03_140"
    INDEX 01 02:58:51
  TRACK 141 AUDIO
    TITLE "LR_black_phrase_E_A03_141"
    INDEX 01 02:59:61
  TRACK 142 AUDIO
    TITLE "LR_black_phrase_E_A03_142"
    INDEX 01 03:00:09
  TRACK 143 AUDIO
    TITLE "LR_black_phrase_E_A03_143"
    INDEX 01 03:02:45
  TRACK 144 AUDIO
    TITLE "LR_black_phrase_E_A03_144"
    INDEX 01 03:03:27
  TRACK 145 AUDIO
    TITLE "LR_black_phrase_E_A03_145"
    INDEX 01 03:05:65
  TRACK 146 AUDIO
    TITLE "LR_black_phrase_E_A03_146"
    INDEX 01 03:06:74
  TRACK 147 AUDIO
    TITLE "LR_black_phrase_E_A03_147"
    INDEX 01 03:07:72
  TRACK 148 AUDIO
    TITLE "LR_black_phrase_E_A03_148"
    INDEX 01 03:08:28
  TRACK 149 AUDIO
    TITLE "LR_black_phrase_E_A03_149"
    INDEX 01 03:10:41
  TRACK 150 AUDIO
    TITLE "LR_black_phrase_E_A03_150"
    INDEX 01 03:11:28
  TRACK 151 AUDIO
    TITLE "LR_black_phrase_E_A03_151"
    INDEX 01 03:13:43
  TRACK 152 AUDIO
    TITLE "LR_black_phrase_E_A03_152"
    INDEX 01 03:14:46
  TRACK 153 AUDIO
    TITLE "LR_black_phrase_E_A03_153"
    INDEX 01 03:15:67
  TRACK 154 AUDIO
    TITLE "LR_black_phrase_E_A03_154"
    INDEX 01 03:16:22
  TRACK 155 AUDIO
    TITLE "LR_black_phrase_E_A03_155"
    INDEX 01 03:18:72
  TRACK 156 AUDIO
    TITLE "LR_black_phrase_E_A03_156"
    INDEX 01 03:19:52
  TRACK 157 AUDIO
    TITLE "LR_black_phrase_E_A03_157"
    INDEX 01 03:22:22
  TRACK 158 AUDIO
    TITLE "LR_black_phrase_E_A03_158"
    INDEX 01 03:23:28
  TRACK 159 AUDIO
    TITLE "LR_black_phrase_E_A03_159"
    INDEX 01 03:24:45
  TRACK 160 AUDIO
    TITLE "LR_black_phrase_E_A03_160"
    INDEX 01 03:24:74
  TRACK 161 AUDIO
    TITLE "LR_black_phrase_E_A03_161"
    INDEX 01 03:27:65
  TRACK 162 AUDIO
    TITLE "LR_black_phrase_E_A03_162"
    INDEX 01 03:28:45
  TRACK 163 AUDIO
    TITLE "LR_black_phrase_E_A03_163"
    INDEX 01 03:31:35
  TRACK 164 AUDIO
    TITLE "LR_black_phrase_E_A03_164"
    INDEX 01 03:32:36
  TRACK 165 AUDIO
    TITLE "LR_black_phrase_E_A03_165"
    INDEX 01 03:33:48
  TRACK 166 AUDIO
    TITLE "LR_black_phrase_E_A03_166"
    INDEX 01 03:34:02
  TRACK 167 AUDIO
    TITLE "LR_black_phrase_E_A03_167"
    INDEX 01 03:36:75
  TRACK 168 AUDIO
    TITLE "LR_black_phrase_E_A03_168"
    INDEX 01 03:37:51
  TRACK 169 AUDIO
    TITLE "LR_black_phrase_E_A03_169"
    INDEX 01 03:40:52
  TRACK 170 AUDIO
    TITLE "LR_black_phrase_E_A03_170"
    INDEX 01 03:41:47
  TRACK 171 AUDIO
    TITLE "LR_black_phrase_E_A03_171"
    INDEX 01 03:43:03
  TRACK 172 AUDIO
    TITLE "LR_black_phrase_E_A03_172"
    INDEX 01 03:43:23
  TRACK 173 AUDIO
    TITLE "LR_black_phrase_E_A03_173"
    INDEX 01 03:45:53
  TRACK 174 AUDIO
    TITLE "LR_black_phrase_E_A03_174"
    INDEX 01 03:46:21
  TRACK 175 AUDIO
    TITLE "LR_black_phrase_E_A03_175"
    INDEX 01 03:48:53
  TRACK 176 AUDIO
    TITLE "LR_black_phrase_E_A03_176"
    INDEX 01 03:49:47
  TRACK 177 AUDIO
    TITLE "LR_black_phrase_E_A03_177"
    INDEX 01 03:50:58
  TRACK 178 AUDIO
    TITLE "LR_black_phrase_E_A03_178"
    INDEX 01 03:51:03
  TRACK 179 AUDIO
    TITLE "LR_black_phrase_E_A03_179"
    INDEX 01 03:52:47
  TRACK 180 AUDIO
    TITLE "LR_black_phrase_E_A03_180"
    INDEX 01 03:53:19
  TRACK 181 AUDIO
    TITLE "LR_black_phrase_E_A03_181"
    INDEX 01 03:54:66
